<svg width="121" height="121" viewBox="0 0 121 121" fill="none" xmlns="http://www.w3.org/2000/svg">
<g filter="url(#filter0_dd)">
<path d="M99 60.5C99 81.763 81.763 99 60.5 99C39.237 99 22 81.763 22 60.5C22 39.237 39.237 22 60.5 22C81.763 22 99 39.237 99 60.5Z" fill="#F6F6F6"/>
<path d="M98.5 60.5C98.5 81.4868 81.4868 98.5 60.5 98.5C39.5132 98.5 22.5 81.4868 22.5 60.5C22.5 39.5132 39.5132 22.5 60.5 22.5C81.4868 22.5 98.5 39.5132 98.5 60.5Z" stroke="white" stroke-opacity="0.5"/>
</g>
<path fill-rule="evenodd" clip-rule="evenodd" d="M61 78.5C65.6413 78.5 70.0925 76.6563 73.3744 73.3744C76.6563 70.0925 78.5 65.6413 78.5 61C78.5 56.3587 76.6563 51.9075 73.3744 48.6256C70.0925 45.3437 65.6413 43.5 61 43.5C56.3587 43.5 51.9075 45.3437 48.6256 48.6256C45.3437 51.9075 43.5 56.3587 43.5 61C43.5 65.6413 45.3437 70.0925 48.6256 73.3744C51.9075 76.6563 56.3587 78.5 61 78.5ZM61 81C66.3043 81 71.3914 78.8929 75.1421 75.1421C78.8929 71.3914 81 66.3043 81 61C81 55.6957 78.8929 50.6086 75.1421 46.8579C71.3914 43.1071 66.3043 41 61 41C55.6957 41 50.6086 43.1071 46.8579 46.8579C43.1071 50.6086 41 55.6957 41 61C41 66.3043 43.1071 71.3914 46.8579 75.1421C50.6086 78.8929 55.6957 81 61 81Z" fill="#FFBC00"/>
<path fill-rule="evenodd" clip-rule="evenodd" d="M60.1153 69.385C59.9989 69.2689 59.9065 69.1309 59.8435 68.9791C59.7805 68.8272 59.748 68.6644 59.748 68.5C59.748 68.3356 59.7805 68.1728 59.8435 68.0209C59.9065 67.869 59.9989 67.7311 60.1153 67.615L66.7328 61L60.1153 54.385C59.9991 54.2688 59.9069 54.1308 59.844 53.979C59.7811 53.8271 59.7487 53.6644 59.7487 53.5C59.7487 53.3356 59.7811 53.1729 59.844 53.021C59.9069 52.8692 59.9991 52.7312 60.1153 52.615C60.2315 52.4988 60.3695 52.4066 60.5213 52.3437C60.6732 52.2808 60.8359 52.2484 61.0003 52.2484C61.1646 52.2484 61.3274 52.2808 61.4792 52.3437C61.6311 52.4066 61.7691 52.4988 61.8853 52.615L69.3853 60.115C69.5017 60.2311 69.594 60.369 69.6571 60.5209C69.7201 60.6728 69.7525 60.8356 69.7525 61C69.7525 61.1644 69.7201 61.3272 69.6571 61.4791C69.594 61.6309 69.5017 61.7689 69.3853 61.885L61.8853 69.385C61.7692 69.5014 61.6312 69.5938 61.4794 69.6568C61.3275 69.7198 61.1647 69.7522 61.0003 69.7522C60.8359 69.7522 60.6731 69.7198 60.5212 69.6568C60.3693 69.5938 60.2314 69.5014 60.1153 69.385Z" fill="#FFBC00"/>
<path fill-rule="evenodd" clip-rule="evenodd" d="M52.25 61C52.25 60.6685 52.3817 60.3505 52.6161 60.1161C52.8505 59.8817 53.1685 59.75 53.5 59.75H66C66.3315 59.75 66.6495 59.8817 66.8839 60.1161C67.1183 60.3505 67.25 60.6685 67.25 61C67.25 61.3315 67.1183 61.6495 66.8839 61.8839C66.6495 62.1183 66.3315 62.25 66 62.25H53.5C53.1685 62.25 52.8505 62.1183 52.6161 61.8839C52.3817 61.6495 52.25 61.3315 52.25 61Z" fill="#FFBC00"/>
<defs>
<filter id="filter0_dd" x="0" y="0" width="121" height="121" filterUnits="userSpaceOnUse" color-interpolation-filters="sRGB">
<feFlood flood-opacity="0" result="BackgroundImageFix"/>
<feColorMatrix in="SourceAlpha" type="matrix" values="0 0 0 0 0 0 0 0 0 0 0 0 0 0 0 0 0 0 127 0"/>
<feOffset dx="-6" dy="-6"/>
<feGaussianBlur stdDeviation="8"/>
<feColorMatrix type="matrix" values="0 0 0 0 1 0 0 0 0 1 0 0 0 0 1 0 0 0 0.77 0"/>
<feBlend mode="normal" in2="BackgroundImageFix" result="effect1_dropShadow"/>
<feColorMatrix in="SourceAlpha" type="matrix" values="0 0 0 0 0 0 0 0 0 0 0 0 0 0 0 0 0 0 127 0"/>
<feOffset dx="6" dy="6"/>
<feGaussianBlur stdDeviation="8"/>
<feColorMatrix type="matrix" values="0 0 0 0 0.879462 0 0 0 0 0.879462 0 0 0 0 0.879462 0 0 0 0.6 0"/>
<feBlend mode="normal" in2="effect1_dropShadow" result="effect2_dropShadow"/>
<feBlend mode="normal" in="SourceGraphic" in2="effect2_dropShadow" result="shape"/>
</filter>
</defs>
</svg>
