<svg width="90" height="90" viewBox="0 0 90 90" fill="none" xmlns="http://www.w3.org/2000/svg">
<path d="M36.8432 35.197C38.1191 31.4474 36.1126 27.372 32.3624 26.0958C28.6121 24.8196 24.5376 26.8257 23.2616 30.5753C21.9847 34.3275 23.9897 38.4009 27.7406 39.6773C31.4916 40.9538 35.5663 38.9493 36.8432 35.197Z" fill="white"/>
<path d="M65.7833 38.9488C62.0337 37.6729 57.9585 39.6787 56.6825 43.4283C55.4056 47.1805 57.4124 51.2531 61.162 52.529C64.9123 53.8052 68.9865 51.8021 70.2634 48.0498C71.5394 44.3002 69.5342 40.2252 65.7833 38.9488Z" fill="white"/>
<path d="M54.7328 51.199C54.4587 50.4565 54.0197 49.5555 53.4928 48.588C52.3482 45.2377 49.7299 42.4312 46.1195 41.2026C42.9063 40.1091 39.5548 40.4867 36.7755 41.9601C35.2724 42.5745 33.9061 43.2085 32.9742 43.7954L32.3525 44.1823C29.4535 45.9832 25.8454 48.2235 24.0694 53.504C22.4207 58.4081 25.0525 63.7527 29.9363 65.4146C31.2907 65.8788 32.7339 66.0237 34.1535 65.8382C35.5731 65.6528 36.9306 65.1418 38.1202 64.3452C38.577 65.7025 39.3413 66.9358 40.3534 67.9488C41.3656 68.9618 42.5983 69.7272 43.9551 70.1851C48.8369 71.8464 54.1815 69.2169 55.8672 64.3247C57.6807 59.0569 56.1874 55.0806 54.9893 51.8855L54.7328 51.199Z" fill="white"/>
<path d="M48.0638 37.0311C52.1962 38.4374 56.6862 36.2274 58.0925 32.0949C59.4987 27.9625 57.2887 23.4725 53.1563 22.0663C49.0238 20.66 44.5338 22.87 43.1276 27.0025C41.7213 31.1349 43.9314 35.6249 48.0638 37.0311Z" fill="white"/>
</svg>
