<svg width="100" height="100" viewBox="0 0 100 100" fill="none" xmlns="http://www.w3.org/2000/svg">
<g filter="url(#filter0_ddi)">
<circle cx="45.5" cy="45.5" r="31.5" fill="url(#paint0_linear)"/>
<circle cx="45.5" cy="45.5" r="31" stroke="url(#paint1_linear)"/>
</g>
<g filter="url(#filter1_d)">
<circle cx="45.5" cy="45.5" r="24.5" fill="url(#paint2_linear)"/>
</g>
<path d="M59.3122 40.219C59.5218 39.5157 59.3122 39 58.3211 39H55.0379C54.2025 39 53.8207 39.4461 53.6111 39.9361C53.6111 39.9361 51.9418 44.0482 49.5764 46.7145C48.8128 47.4903 48.464 47.7353 48.0478 47.7353C47.8397 47.7353 47.5373 47.4903 47.5373 46.7871V40.219C47.5373 39.3751 47.2963 39 46.6001 39H41.441C40.92 39 40.6056 39.3902 40.6056 39.7622C40.6056 40.5607 41.7883 40.7453 41.9096 42.9956V47.8775C41.9096 48.9467 41.7195 49.1418 41.3003 49.1418C40.1879 49.1418 37.4811 45.0146 35.8747 40.29C35.5618 39.372 35.2459 39.0015 34.4075 39.0015H31.1258C30.1871 39.0015 30 39.4477 30 39.9377C30 40.8178 31.1124 45.1734 35.1815 50.934C37.8943 54.8676 41.7135 57 45.1928 57C47.2783 57 47.5358 56.5266 47.5358 55.71V52.7367C47.5358 51.79 47.7349 51.5994 48.3951 51.5994C48.8802 51.5994 49.7156 51.8474 51.6634 53.7424C53.8881 55.9897 54.2564 56.9985 55.5065 56.9985H58.7882C59.7254 56.9985 60.194 56.5251 59.9245 55.5905C59.6295 54.6604 58.5666 53.3068 57.1563 51.7053C56.3898 50.7918 55.2445 49.8088 54.8956 49.3173C54.4091 48.6836 54.5498 48.4038 54.8956 47.8412C54.8971 47.8427 58.896 42.1533 59.3122 40.219Z" fill="#E8A700"/>
<defs>
<filter id="filter0_ddi" x="0" y="0" width="100" height="100" filterUnits="userSpaceOnUse" color-interpolation-filters="sRGB">
<feFlood flood-opacity="0" result="BackgroundImageFix"/>
<feColorMatrix in="SourceAlpha" type="matrix" values="0 0 0 0 0 0 0 0 0 0 0 0 0 0 0 0 0 0 127 0"/>
<feOffset dx="-6" dy="-6"/>
<feGaussianBlur stdDeviation="4"/>
<feColorMatrix type="matrix" values="0 0 0 0 1 0 0 0 0 1 0 0 0 0 1 0 0 0 1 0"/>
<feBlend mode="normal" in2="BackgroundImageFix" result="effect1_dropShadow"/>
<feColorMatrix in="SourceAlpha" type="matrix" values="0 0 0 0 0 0 0 0 0 0 0 0 0 0 0 0 0 0 127 0"/>
<feOffset dx="7" dy="7"/>
<feGaussianBlur stdDeviation="8"/>
<feColorMatrix type="matrix" values="0 0 0 0 0.833333 0 0 0 0 0.833333 0 0 0 0 0.833333 0 0 0 0.6 0"/>
<feBlend mode="normal" in2="effect1_dropShadow" result="effect2_dropShadow"/>
<feBlend mode="normal" in="SourceGraphic" in2="effect2_dropShadow" result="shape"/>
<feColorMatrix in="SourceAlpha" type="matrix" values="0 0 0 0 0 0 0 0 0 0 0 0 0 0 0 0 0 0 127 0" result="hardAlpha"/>
<feOffset dx="13" dy="22"/>
<feGaussianBlur stdDeviation="4"/>
<feComposite in2="hardAlpha" operator="arithmetic" k2="-1" k3="1"/>
<feColorMatrix type="matrix" values="0 0 0 0 0.954167 0 0 0 0 0.954167 0 0 0 0 0.954167 0 0 0 1 0"/>
<feBlend mode="normal" in2="shape" result="effect3_innerShadow"/>
</filter>
<filter id="filter1_d" x="11" y="11" width="75" height="75" filterUnits="userSpaceOnUse" color-interpolation-filters="sRGB">
<feFlood flood-opacity="0" result="BackgroundImageFix"/>
<feColorMatrix in="SourceAlpha" type="matrix" values="0 0 0 0 0 0 0 0 0 0 0 0 0 0 0 0 0 0 127 0"/>
<feOffset dx="3" dy="3"/>
<feGaussianBlur stdDeviation="6.5"/>
<feColorMatrix type="matrix" values="0 0 0 0 0.695833 0 0 0 0 0.695833 0 0 0 0 0.695833 0 0 0 1 0"/>
<feBlend mode="normal" in2="BackgroundImageFix" result="effect1_dropShadow"/>
<feBlend mode="normal" in="SourceGraphic" in2="effect1_dropShadow" result="shape"/>
</filter>
<linearGradient id="paint0_linear" x1="25.3203" y1="19.3308" x2="64.9665" y2="74.1033" gradientUnits="userSpaceOnUse">
<stop stop-color="white"/>
<stop offset="1" stop-color="#FBFBFB"/>
</linearGradient>
<linearGradient id="paint1_linear" x1="45.5" y1="14" x2="45.5" y2="77" gradientUnits="userSpaceOnUse">
<stop stop-color="#E3E3E3"/>
<stop offset="1" stop-color="white"/>
</linearGradient>
<linearGradient id="paint2_linear" x1="33.0001" y1="25.5" x2="61.0001" y2="66.5" gradientUnits="userSpaceOnUse">
<stop stop-color="white"/>
<stop offset="1" stop-color="#E4E4E4"/>
</linearGradient>
</defs>
</svg>
